<?xml version="1.0" encoding="UTF-8" standalone="no"?>
<svg
   xmlns:dc="http://purl.org/dc/elements/1.1/"
   xmlns:cc="http://creativecommons.org/ns#"
   xmlns:rdf="http://www.w3.org/1999/02/22-rdf-syntax-ns#"
   xmlns:svg="http://www.w3.org/2000/svg"
   xmlns="http://www.w3.org/2000/svg"
   xmlns:sodipodi="http://sodipodi.sourceforge.net/DTD/sodipodi-0.dtd"
   xmlns:inkscape="http://www.inkscape.org/namespaces/inkscape"
   width="180"
   height="180"
   viewBox="0 0 180 180"
   id="svg3347"
   version="1.1"
   inkscape:version="0.91 r13725"
   sodipodi:docname="logo-social.svg">
  <sodipodi:namedview
     pagecolor="#ffffff"
     bordercolor="#666666"
     borderopacity="1"
     objecttolerance="10"
     gridtolerance="10"
     guidetolerance="10"
     inkscape:pageopacity="0"
     inkscape:pageshadow="2"
     inkscape:window-width="979"
     inkscape:window-height="495"
     id="namedview7"
     showgrid="false"
     inkscape:zoom="0.47580645"
     inkscape:cx="13"
     inkscape:cy="134.38982"
     inkscape:window-x="0"
     inkscape:window-y="0"
     inkscape:window-maximized="0"
     inkscape:current-layer="layer1"
     width="180px" />
  <defs
     id="defs3349" />
  <metadata
     id="metadata3352">
    <rdf:RDF>
      <cc:Work
         rdf:about="">
        <dc:format>image/svg+xml</dc:format>
        <dc:type
           rdf:resource="http://purl.org/dc/dcmitype/StillImage" />
        <dc:title />
      </cc:Work>
    </rdf:RDF>
  </metadata>
  <g
     style="opacity:1"
     id="layer1"
     transform="matrix(0.33959766,0,0,0.33959766,0.33733936,-177.07782)">
    <rect
       style="opacity:1;fill:#eeeeee;fill-opacity:1;stroke:none;stroke-width:20;stroke-linecap:round;stroke-miterlimit:4;stroke-dasharray:none;stroke-opacity:1"
       id="rect3626"
       width="530.039"
       height="530.039"
       x="-0.99335009"
       y="521.43414"
       inkscape:export-xdpi="512"
       inkscape:export-ydpi="512" />
    <path
       id="path4585"
       d="m 169.71025,669.05227 0,28.74948 c 0.32611,4.79744 4.44769,6.56146 8.8841,7.13509 40.63198,5.49399 76.10985,14.87042 102.83263,27.50349 36.07228,17.05333 52.37588,37.82444 52.37588,54.51927 0,16.69499 -16.3036,37.46657 -52.37588,54.51992 -16.31114,7.12598 -34.06983,13.11219 -48.66908,16.80839 -2.95487,0.74756 -5.0979,3.45097 -5.13852,6.63991 l 0,29.08246 c 0.14615,4.39917 3.89633,7.3225 8.03281,6.81771 23.38323,-5.34269 44.95733,-12.41527 63.74415,-21.29729 43.54746,-20.58689 76.48214,-51.82889 76.48214,-92.5711 0,-40.74152 -32.93468,-71.96057 -76.48214,-92.54747 -33.62931,-15.89825 -75.7453,-27.97641 -122.34972,-32.17779 -4.28004,-0.16129 -7.23888,3.03516 -7.33637,6.81793 z m 7.85487,54.80587 c -4.74407,-0.35861 -7.88303,3.13705 -7.87031,6.96488 l -0.0165,172.94564 c 1.1e-4,3.03673 2.38813,7.25562 7.97865,6.88762 8.72116,-0.56369 17.51411,-1.92778 25.53016,-3.17297 3.4334,-0.40873 6.10649,-3.18756 6.14458,-6.72523 l 0,-49.25677 c -0.0316,-6.19154 1.27076,-8.04363 8.61324,-9.39507 12.56894,-2.43587 25.64463,-5.17232 36.57336,-8.56658 32.8449,-10.34162 57.67693,-26.03638 57.67693,-46.50217 0,-20.46612 -30.65191,-37.85565 -63.49648,-48.19713 -21.63925,-6.81344 -39.72434,-10.8971 -71.13463,-14.98222 z m 38.75569,44.14206 c 2.29878,0 18.49212,2.80707 26.83025,4.79772 10.72203,2.59304 26.50523,8.30181 26.50523,13.16393 0,5.00663 -15.00457,10.77209 -26.07183,13.54239 -7.89643,1.9776 -17.00533,3.46307 -26.04092,4.78285 -5.85836,0.50865 -8.08478,-3.78593 -8.21084,-6.21438 0.008,-7.67123 -0.0248,-15.4999 0.0462,-23.1158 0.0974,-3.86284 3.0792,-6.98054 6.94167,-6.95671 z"
       style="color:#000000;font-style:normal;font-variant:normal;font-weight:normal;font-stretch:normal;font-size:medium;line-height:normal;font-family:sans-serif;text-indent:0;text-align:start;text-decoration:none;text-decoration-line:none;text-decoration-style:solid;text-decoration-color:#000000;letter-spacing:normal;word-spacing:normal;text-transform:none;direction:ltr;block-progression:tb;writing-mode:lr-tb;baseline-shift:baseline;text-anchor:start;white-space:normal;clip-rule:nonzero;display:inline;overflow:visible;visibility:visible;opacity:1;isolation:auto;mix-blend-mode:normal;color-interpolation:sRGB;color-interpolation-filters:linearRGB;solid-color:#000000;solid-opacity:1;fill:#656d84;fill-opacity:1;fill-rule:nonzero;stroke:none;stroke-width:4.5334878;stroke-linecap:round;stroke-linejoin:round;stroke-miterlimit:4;stroke-dasharray:none;stroke-dashoffset:0;stroke-opacity:1;color-rendering:auto;image-rendering:auto;shape-rendering:auto;text-rendering:auto;enable-background:accumulate"
       inkscape:connector-curvature="0"
       inkscape:export-xdpi="512"
       inkscape:export-ydpi="512" />
  </g>
</svg>
